# xmcd
#
# Track frame offsets:
#  150
#  19539
#  48326
#  75381
#  96647
#  124158
#  152267
#  179146
#  204469
#  232293
#  256045
#  282552
#
# Disc length: 3989 seconds
#
# Revision: 0
# Processed by: cddbd v1.5.2PL0 Copyright (c) Steve Scherf et al.
# Submitted via: AltoMP3_Maker 3.0
#
DISCID=a20f930c
DTITLE=Union Street Blues - By Any Means Necessary
DYEAR=1900
DGENRE=
TTITLE0=Butter Your Biscuit
TTITLE1=In A Situation
TTITLE2=Depression Blues
TTITLE3=Another Man
TTITLE4=My Baby Gone
TTITLE5=Well Enough Alone
TTITLE6=Sinking Down
TTITLE7=myspacedotcom
TTITLE8=Sad Sad Day
TTITLE9=I May Be Slow
TTITLE10=Killing Me
TTITLE11=So Comfortable
EXTD=
EXTT0=
EXTT1=
EXTT2=
EXTT3=
EXTT4=
EXTT5=
EXTT6=
EXTT7=
EXTT8=
EXTT9=
EXTT10=
EXTT11=
PLAYORDER=
